<svg viewBox="0 0 24 24" xmlns="http://www.w3.org/2000/svg">
    <path fill="#43A047" d="M6 2h9l5 5v15a2 2 0 0 1-2 2H6a2 2 0 0 1-2-2V4a2 2 0 0 1 2-2z"/>
    <path fill="#C8E6C9" d="M15 2v5h5"/>
    <rect x="7" y="10" width="10" height="1" fill="#E8F5E9"/>
    <rect x="7" y="12" width="10" height="1" fill="#E8F5E9"/>
    <rect x="7" y="14" width="10" height="1" fill="#E8F5E9"/>
    <rect x="7" y="16" width="10" height="1" fill="#E8F5E9"/>
    <rect x="7" y="10" width="1" height="7" fill="#E8F5E9"/>
    <rect x="10" y="10" width="1" height="7" fill="#E8F5E9"/>
    <rect x="16" y="10" width="1" height="7" fill="#E8F5E9"/>
</svg>
