<svg version="1.1" id="Layer_1" xmlns="http://www.w3.org/2000/svg" xmlns:xlink="http://www.w3.org/1999/xlink" x="0px" y="0px"
	 width="100%" viewBox="0 0 942 693" enable-background="new 0 0 942 693" xml:space="preserve">
<path fill="currentColor" opacity="1.000000" stroke="none" 
	d="
M589.780579,491.217957 
	C559.535400,472.564880 538.396851,446.864136 526.118713,413.917236 
	C519.506104,396.172882 516.449585,377.888885 515.818970,358.863434 
	C515.157349,338.903290 517.244324,319.551666 522.680298,300.443939 
	C528.407043,280.313995 538.284485,262.310822 551.441895,246.207458 
	C577.976685,213.731613 612.774902,195.493118 653.947632,190.324692 
	C690.948303,185.679977 726.986206,190.079254 760.557617,207.816879 
	C792.320068,224.598740 813.744019,250.262390 825.846619,283.935364 
	C827.238831,287.808777 825.903687,289.030365 822.056396,289.016937 
	C800.726746,288.942505 779.394958,289.100891 758.069397,288.797302 
	C755.797302,288.764954 752.688110,286.795349 751.447754,284.802795 
	C742.903931,271.077881 731.569641,260.520264 716.419067,254.947220 
	C707.628174,251.713516 698.207520,250.139740 689.009644,248.091217 
	C685.637451,247.340164 682.096008,247.185379 678.622253,247.083267 
	C665.768250,246.705383 653.289856,249.133820 641.485535,253.915115 
	C607.416809,267.714539 589.298279,294.177124 583.075317,329.546387 
	C579.236206,351.366882 580.646545,372.881012 587.838684,393.949158 
	C596.820618,420.260071 613.657959,439.566986 639.493042,450.043518 
	C666.150818,460.853668 693.462646,461.222626 720.259888,450.724335 
	C743.338989,441.682739 758.433533,424.292267 767.027466,401.206604 
	C768.647217,396.855591 769.757324,392.316772 771.172913,387.887054 
	C772.034058,385.192261 770.859619,384.140381 768.320984,384.068787 
	C766.655640,384.021820 764.989075,384.000854 763.323059,384.000580 
	C731.828064,383.995300 700.333008,384.006104 668.838013,383.984161 
	C662.246765,383.979584 662.032227,383.761658 662.014526,377.287018 
	C661.981262,365.122375 662.129883,352.955750 661.945496,340.793823 
	C661.880310,336.491821 663.406494,334.940460 667.749817,334.948212 
	C721.574463,335.044373 775.399414,335.043640 829.224060,334.948883 
	C833.539062,334.941284 835.098999,336.438965 835.054871,340.767365 
	C834.888184,357.096405 836.052551,373.524048 834.598938,389.724609 
	C833.654724,400.247223 829.825928,410.750793 825.902832,420.717072 
	C817.417847,442.272339 803.903809,460.646637 786.498657,475.814423 
	C763.976746,495.441345 737.944641,508.328247 708.244507,512.921021 
	C680.623840,517.192261 653.068604,516.417664 626.403198,507.643677 
	C613.871826,503.520294 602.156738,496.916534 589.780579,491.217957 
z"/>
<path fill="currentColor" opacity="1.000000" stroke="none" 
	d="
M353.676025,427.341278 
	C346.821655,415.325775 340.046448,403.686310 333.539825,391.898590 
	C331.939392,388.999146 330.010864,387.887970 326.810394,387.966339 
	C320.481232,388.121368 314.145325,387.979065 307.812500,388.011749 
	C301.239014,388.045654 301.020569,388.232239 301.014282,394.731201 
	C300.988800,421.063263 301.002289,447.395355 300.999603,473.727417 
	C300.998505,484.226898 300.856415,494.728973 301.054840,505.224640 
	C301.136597,509.549194 299.555939,511.094696 295.229828,511.054932 
	C278.065460,510.897064 260.898743,511.013397 243.732941,510.985626 
	C237.232422,510.975098 237.015152,510.760925 237.013062,504.189423 
	C236.995743,449.692017 237.000687,395.194611 237.000183,340.697205 
	C236.999741,294.032776 236.996307,247.368332 237.006271,200.703888 
	C237.007919,193.032776 237.036713,193.007385 244.839554,193.005646 
	C286.004272,192.996414 327.181091,192.392548 368.329498,193.210800 
	C396.656219,193.774078 422.535492,202.387619 443.843201,222.256134 
	C462.392395,239.552490 471.023956,261.020905 472.048401,286.062836 
	C472.926208,307.520782 467.980286,327.218597 455.963226,345.152130 
	C444.450684,362.332794 428.257843,373.023499 409.129059,379.828918 
	C406.226410,380.861542 403.310242,381.856049 399.617157,383.140656 
	C404.720856,391.789612 409.341766,399.623169 413.965240,407.455170 
	C432.895538,439.522156 451.852783,471.573303 470.733063,503.669739 
	C474.100800,509.394897 473.137512,510.975739 466.590790,510.984955 
	C446.591766,511.013092 426.591797,510.893372 406.594452,511.077942 
	C402.566101,511.115112 400.073792,509.713562 398.164703,506.312897 
	C383.434235,480.073853 368.633301,453.874420 353.676025,427.341278 
M345.499939,245.997284 
	C332.515747,246.002182 319.530457,246.102646 306.547974,245.955521 
	C302.491791,245.909561 300.943054,247.367416 300.959137,251.484161 
	C301.067047,279.116699 301.041748,306.749939 300.978973,334.382751 
	C300.970978,337.907349 301.735352,340.102417 305.917175,340.014557 
	C326.359100,339.584900 346.845917,339.978424 367.234131,338.730103 
	C383.014404,337.763885 395.281891,329.755310 401.989136,314.860992 
	C406.219055,305.467896 407.219299,295.568176 406.136749,285.251740 
	C404.089905,265.746552 392.960999,251.977615 373.714447,247.980270 
	C364.886444,246.146744 355.585999,246.587753 345.499939,245.997284 
z"/>
<path fill="currentColor" opacity="1.000000" stroke="none" 
	d="
M342.961395,617.115051 
	C324.683960,617.135132 306.940765,613.313049 289.518280,608.506165 
	C260.480804,600.494690 233.223526,588.291443 208.430328,570.944397 
	C174.662659,547.318237 147.446884,517.791931 127.270844,481.739349 
	C111.326797,453.248962 100.680046,422.907135 96.338295,390.670502 
	C89.304771,338.447968 95.818451,288.069336 118.382889,239.921768 
	C133.427536,207.819794 153.724457,179.733994 179.757965,155.917221 
	C213.916107,124.667656 253.647049,103.402580 298.875793,93.215897 
	C313.212738,89.986839 328.015747,88.671989 342.666534,87.024017 
	C371.974548,83.727325 400.805420,87.412125 429.009552,95.145935 
	C465.014557,105.018806 497.876526,121.463722 526.813599,145.318848 
	C531.552124,149.225204 536.151489,153.301422 540.776917,157.342911 
	C541.374695,157.865250 541.741577,158.651932 542.694336,159.987595 
	C539.080994,163.845673 535.644592,167.860764 531.833862,171.482071 
	C528.334473,174.807556 525.675476,171.492981 523.203186,169.570679 
	C516.521729,164.375671 510.179535,158.733597 503.389526,153.690720 
	C473.910217,131.796783 440.788239,118.178833 404.906067,111.075745 
	C385.400146,107.214432 365.599426,105.925430 345.825806,107.170334 
	C314.553619,109.139160 284.477417,116.389984 256.029633,129.941696 
	C231.980042,141.398239 210.269852,156.035904 190.891815,174.440033 
	C155.390625,208.156998 132.000183,248.712601 121.126091,296.310028 
	C117.998459,310.000122 116.929024,324.160431 114.604301,338.741028 
	C111.644051,341.528473 111.816910,343.755188 114.115173,346.038544 
	C114.147018,349.457428 114.178864,352.876282 113.918869,356.876831 
	C111.400002,360.389160 111.822266,362.895386 114.833076,364.986908 
	C116.971237,404.882629 128.156174,442.006195 148.565643,476.403259 
	C157.850540,492.051575 168.689529,506.404114 181.092117,519.729736 
	C213.212997,554.241089 252.221817,576.891724 297.644897,588.996826 
	C322.283447,595.562927 347.348602,598.157288 372.686493,596.851929 
	C403.663452,595.256042 433.402679,587.957214 461.572968,574.726257 
	C484.436249,563.987854 505.435303,550.426270 524.162354,533.415405 
	C527.218018,530.639771 530.236450,530.268250 533.218933,533.699280 
	C536.247498,537.183350 539.421631,540.540710 543.268677,544.761963 
	C488.928558,594.415710 425.852570,618.848267 352.233276,617.615479 
	C348.748199,614.637268 345.889740,614.371460 342.961395,617.115051 
z"/>
<path fill="currentColor" opacity="1.000000" stroke="none" 
	d="
M343.302002,617.330627 
	C345.889740,614.371460 348.748199,614.637268 351.764893,617.574097 
	C349.200287,617.737915 346.421448,617.642029 343.302002,617.330627 
z"/>
<path fill="currentColor" opacity="1.000000" stroke="none" 
	d="
M114.874069,364.567871 
	C111.822266,362.895386 111.400002,360.389160 113.870300,357.209259 
	C114.380737,359.356262 114.647903,361.752563 114.874069,364.567871 
z"/>
<path fill="currentColor" opacity="1.000000" stroke="none" 
	d="
M114.329971,345.710693 
	C111.816910,343.755188 111.644051,341.528473 114.562881,339.196167 
	C114.736984,341.137909 114.640877,343.260376 114.329971,345.710693 
z"/>
</svg>